HIERARCHY
ROOT hip
{
  OFFSET 0 0 0
  CHANNELS 6 Xposition Yposition Zposition Zrotation Yrotation Xrotation
  JOINT abdomen
  {
    OFFSET 0 20.6881 -0.73152
    CHANNELS 3 Zrotation Xrotation Yrotation
    JOINT chest
    {
      OFFSET 0 11.7043 -0.48768
      CHANNELS 3 Zrotation Xrotation Yrotation
      JOINT neck
      {
        OFFSET 0 22.1894 -2.19456
        CHANNELS 3 Zrotation Xrotation Yrotation
        JOINT head
        {
          OFFSET -0.24384 7.07133 1.2192
          CHANNELS 3 Zrotation Xrotation Yrotation
          JOINT leftEye
          {
            OFFSET 4.14528 8.04674 8.04672
            CHANNELS 3 Zrotation Xrotation Yrotation
            End Site
            {
              OFFSET 1 0 0
            }
          }
          JOINT rightEye
          {
            OFFSET -3.6576 8.04674 8.04672
            CHANNELS 3 Zrotation Xrotation Yrotation
            End Site
            {
              OFFSET 1 0 0
            }
          }
        }
      }
      JOINT rCollar
      {
        OFFSET -2.68224 19.2634 -4.8768
        CHANNELS 3 Zrotation Xrotation Yrotation
        JOINT rShldr
        {
          OFFSET -8.77824 -1.95073 1.46304
          CHANNELS 3 Zrotation Xrotation Yrotation
          JOINT rForeArm
          {
            OFFSET -28.1742 -1.7115 0.48768
            CHANNELS 3 Zrotation Xrotation Yrotation
            JOINT rHand
            {
              OFFSET -22.5879 0.773209 7.07136
              CHANNELS 3 Zrotation Xrotation Yrotation
              JOINT rThumb1
              {
                OFFSET -1.2192 -0.487915 3.41376
                CHANNELS 3 Zrotation Xrotation Yrotation
                JOINT rThumb2
                {
                  OFFSET -3.37035 -0.52449 3.41376
                  CHANNELS 3 Zrotation Xrotation Yrotation
                  End Site
                  {
                    OFFSET -1.78271 -1.18214 1.43049
                  }
                }
              }
              JOINT rIndex1
              {
                OFFSET -7.75947 0.938293 5.60832
                CHANNELS 3 Zrotation Xrotation Yrotation
                JOINT rIndex2
                {
                  OFFSET -2.54057 -0.884171 1.56538
                  CHANNELS 3 Zrotation Xrotation Yrotation
                  End Site
                  {
                    OFFSET -1.62519 -0.234802 1.16502
                  }
                }
              }
              JOINT rMid1
              {
                OFFSET -8.24714 1.18213 3.41376
                CHANNELS 3 Zrotation Xrotation Yrotation
                JOINT rMid2
                {
                  OFFSET -3.10165 -0.590103 1.0647
                  CHANNELS 3 Zrotation Xrotation Yrotation
                  End Site
                  {
                    OFFSET -2.48547 -0.328903 0.83742
                  }
                }
              }
              JOINT rRing1
              {
                OFFSET -8.82822 0.546677 1.51678
                CHANNELS 3 Zrotation Xrotation Yrotation
                JOINT rRing2
                {
                  OFFSET -2.60934 -0.819778 -0.0198488
                  CHANNELS 3 Zrotation Xrotation Yrotation
                  End Site
                  {
                    OFFSET -2.33842 -0.294052 0.168128
                  }
                }
              }
              JOINT rPinky1
              {
                OFFSET -8.27202 -0.0477905 -0.4584
                CHANNELS 3 Zrotation Xrotation Yrotation
                JOINT rPinky2
                {
                  OFFSET -1.82734 -0.647385 -0.700984
                  CHANNELS 3 Zrotation Xrotation Yrotation
                  End Site
                  {
                    OFFSET -1.69225 -0.51767 -0.607171
                  }
                }
              }
            }
          }
        }
      }
      JOINT lCollar
      {
        OFFSET 2.68224 19.2634 -4.8768
        CHANNELS 3 Zrotation Xrotation Yrotation
        JOINT lShldr
        {
          OFFSET 8.77824 -1.95073 1.46304
          CHANNELS 3 Zrotation Xrotation Yrotation
          JOINT lForeArm
          {
            OFFSET 28.1742 -1.7115 0.48768
            CHANNELS 3 Zrotation Xrotation Yrotation
            JOINT lHand
            {
              OFFSET 22.5879 0.773209 7.07136
              CHANNELS 3 Zrotation Xrotation Yrotation
              JOINT lThumb1
              {
                OFFSET 1.2192 -0.487915 3.41376
                CHANNELS 3 Zrotation Xrotation Yrotation
                JOINT lThumb2
                {
                  OFFSET 3.37035 -0.52449 3.41376
                  CHANNELS 3 Zrotation Xrotation Yrotation
                  End Site
                  {
                    OFFSET 1.78271 -1.18214 1.43049
                  }
                }
              }
              JOINT lIndex1
              {
                OFFSET 7.75947 0.938293 5.60832
                CHANNELS 3 Zrotation Xrotation Yrotation
                JOINT lIndex2
                {
                  OFFSET 2.54057 -0.884171 1.56538
                  CHANNELS 3 Zrotation Xrotation Yrotation
                  End Site
                  {
                    OFFSET 1.62519 -0.234802 1.16502
                  }
                }
              }
              JOINT lMid1
              {
                OFFSET 8.24714 1.18213 3.41376
                CHANNELS 3 Zrotation Xrotation Yrotation
                JOINT lMid2
                {
                  OFFSET 3.10165 -0.590103 1.0647
                  CHANNELS 3 Zrotation Xrotation Yrotation
                  End Site
                  {
                    OFFSET 2.48547 -0.328903 0.83742
                  }
                }
              }
              JOINT lRing1
              {
                OFFSET 8.82822 0.546677 1.51678
                CHANNELS 3 Zrotation Xrotation Yrotation
                JOINT lRing2
                {
                  OFFSET 2.60934 -0.819778 -0.0198488
                  CHANNELS 3 Zrotation Xrotation Yrotation
                  End Site
                  {
                    OFFSET 2.33842 -0.294052 0.168128
                  }
                }
              }
              JOINT lPinky1
              {
                OFFSET 8.27202 -0.0477905 -0.4584
                CHANNELS 3 Zrotation Xrotation Yrotation
                JOINT lPinky2
                {
                  OFFSET 1.82734 -0.647385 -0.700984
                  CHANNELS 3 Zrotation Xrotation Yrotation
                  End Site
                  {
                    OFFSET 1.69225 -0.51767 -0.607171
                  }
                }
              }
            }
          }
        }
      }
    }
  }
  JOINT rButtock
  {
    OFFSET -8.77824 4.35084 1.2192
    CHANNELS 3 Zrotation Xrotation Yrotation
    JOINT rThigh
    {
      OFFSET 0 -1.70687 -2.19456
      CHANNELS 3 Zrotation Xrotation Yrotation
      JOINT rShin
      {
        OFFSET 0 -36.8199 0.73152
        CHANNELS 3 Zrotation Xrotation Yrotation
        JOINT rFoot
        {
          OFFSET 0.73152 -45.1104 -5.12064
          CHANNELS 3 Zrotation Xrotation Yrotation
          End Site
          {
            OFFSET -1.1221 -3.69964 12.103
          }
        }
      }
    }
  }
  JOINT lButtock
  {
    OFFSET 8.77824 4.35084 1.2192
    CHANNELS 3 Zrotation Xrotation Yrotation
    JOINT lThigh
    {
      OFFSET 0 -1.70687 -2.19456
      CHANNELS 3 Zrotation Xrotation Yrotation
      JOINT lShin
      {
        OFFSET 0 -36.8199 0.73152
        CHANNELS 3 Zrotation Xrotation Yrotation
        JOINT lFoot
        {
          OFFSET -0.73152 -45.1104 -5.12064
          CHANNELS 3 Zrotation Xrotation Yrotation
          End Site
          {
            OFFSET 1.1221 -3.69964 12.103
          }
        }
      }
    }
  }
}
MOTION
Frames:	9
Frame Time:	0.00833333
3.92116 85.1968 -1.41158 0.0 0.0 0.0 0.583966 -0.00303823 0.0166885 0.16117 -0.00468519 0.0279252 1.37703e-14 0.0 6.21202e-18 4.12944e-14 3.18055e-15 1.55301e-17 -0.0 0.0 0.0 -0.0 0.0 0.0 6.85695e-15 -4.27076e-18 1.49089e-16 1.44739e-13 -5.09386e-16 1.59028e-15 2.478e-12 -7.47033e-13 -2.22639e-14 2.83437e-11 7.13761e-13 3.81667e-14 6.68597e-11 -6.60819e-14 6.04305e-14 1.15455e-10 -1.145e-13 8.90555e-14 6.68652e-11 -6.32135e-14 4.13472e-14 7.73091 5.47488 0.417314 6.68591e-11 -6.56983e-14 5.40694e-14 2.90554 0.965183 0.102902 6.68698e-11 -6.55989e-14 5.725e-14 10.2786 0.731801 0.0259123 6.68578e-11 -6.44062e-14 6.67917e-14 2.22167 -0.733487 -0.20892 6.76026e-15 -5.43552e-18 -1.49089e-16 1.42005e-13 1.18028e-16 -1.98785e-16 2.47631e-12 7.37094e-13 -3.49861e-14 2.83479e-11 -7.66215e-13 7.31528e-14 6.68693e-11 -6.48919e-14 5.08889e-14 1.15487e-10 -1.145e-13 9.38264e-14 6.68636e-11 -6.40087e-14 6.67917e-14 -7.73091 5.47488 -0.417314 6.68679e-11 -6.42074e-14 5.40694e-14 -2.90554 0.965183 -0.102902 6.68558e-11 -6.42074e-14 5.32743e-14 -10.2786 0.731801 -0.0259123 6.68676e-11 -6.67917e-14 4.45278e-14 -2.22167 -0.733487 0.20892 -2.03217e-16 0.0 -3.88251e-19 0.94004 -4.56521 -0.0787584 -0.00191335 2.71741 -0.00754528 -0.501091 1.84803 0.0947667 2.03217e-16 0.0 3.88251e-19 -0.0507099 -2.31868 0.0217175 0.00815977 -1.35176 0.0697812 0.492729 3.67058 -0.130797
3.86535 84.6253 -2.08001 1.0005 -4.9785 1.3808 -0.365899 0.823652 0.348223 0.0544292 -0.534594 0.118928 -2.48855 2.19985 -1.45859 3.9796 -4.27088 -2.02689 -0.0 0.0 0.0 -0.0 0.0 0.0 2.65753e-15 2.44199e-15 -2.49059e-14 21.3345 7.19244 0.217181 -3.68455 -1.58023 5.85282 0.0678753 5.78461 0.798085 1.87395e-10 -1.54162e-10 7.42746e-11 3.24842e-10 -2.65719e-10 1.2598e-10 1.874e-10 -1.54158e-10 7.426e-11 7.73091 5.47488 0.417314 1.87393e-10 -1.54163e-10 7.42701e-11 2.90554 0.965183 0.102902 1.87403e-10 -1.54161e-10 7.4273e-11 10.2786 0.731801 0.0259123 1.87391e-10 -1.54159e-10 7.42819e-11 2.22167 -0.733487 -0.20892 2.57628e-15 2.4398e-15 -2.51905e-14 -21.6935 0.278222 0.487993 2.84436 -1.10304 -4.62714 -0.0113999 2.36885 -0.331893 1.39047e-10 2.78972e-10 -1.30876e-10 2.38876e-10 4.82344e-10 -2.27262e-10 1.39043e-10 2.78973e-10 -1.30861e-10 -7.73091 5.47488 -0.417314 1.39047e-10 2.78973e-10 -1.30873e-10 -2.90554 0.965183 -0.102902 1.39034e-10 2.78973e-10 -1.30873e-10 -10.2786 0.731801 -0.0259123 1.39047e-10 2.7897e-10 -1.30882e-10 -2.22167 -0.733487 0.20892 -2.03217e-16 0.0 -3.88251e-19 0.765453 -4.79207 5.48978 0.00330919 5.99043 0.0651228 -0.883337 -1.18522 -5.41884 2.03217e-16 0.0 3.88251e-19 -0.161883 -2.54147 -2.04918 0.000577077 1.71807 0.00438763 0.698382 0.9504 4.1615
3.86541 84.6244 -2.09021 1.004 -5.006 1.4268 -1.37927 1.69316 0.697288 -0.0560378 -1.09474 0.214779 -4.99512 4.53139 -3.01425 7.84778 -8.77564 -4.22225 -0.0 0.0 0.0 -0.0 0.0 0.0 -1.56974e-15 5.9879e-15 -5.59299e-14 43.8283 14.7919 0.455762 -7.22916 -3.19486 12.052 -0.0391041 11.8997 1.66979 3.39601e-10 -3.35422e-10 1.52722e-10 5.88988e-10 -5.7795e-10 2.58638e-10 3.39605e-10 -3.35418e-10 1.52712e-10 7.73091 5.47488 0.417314 3.39597e-10 -3.35424e-10 1.5272e-10 2.90554 0.965183 0.102902 3.39605e-10 -3.3542e-10 1.52722e-10 10.2786 0.731801 0.0259123 3.39594e-10 -3.35417e-10 1.5273e-10 2.22167 -0.733487 -0.20892 -1.63575e-15 5.98458e-15 -5.62002e-14 -44.6304 0.558537 1.00888 5.6547 -2.24317 -9.51846 0.00649628 4.87568 -0.685047 2.28512e-10 6.30365e-10 -2.82086e-10 3.91932e-10 1.08996e-09 -4.89902e-10 2.28511e-10 6.30368e-10 -2.82072e-10 -7.73091 5.47488 -0.417314 2.28514e-10 6.30367e-10 -2.82085e-10 -2.90554 0.965183 -0.102902 2.28501e-10 6.30367e-10 -2.82084e-10 -10.2786 0.731801 -0.0259123 2.28514e-10 6.30365e-10 -2.82093e-10 -2.22167 -0.733487 0.20892 -2.03217e-16 0.0 -3.88251e-19 0.631667 -4.97536 11.3831 -0.00038964 9.44937 0.143138 -1.9201 -4.3186 -11.2797 2.03217e-16 0.0 3.88251e-19 -0.294852 -2.77269 -4.24097 0.000105093 4.96637 -0.0650728 1.35817 -1.9014 8.70471
3.86474 84.6183 -2.10791 0.9941 -4.9921 1.5036 -2.29435 2.47669 1.01213 -0.154 -1.59439 0.301034 -7.1281 6.5824 -4.40161 11.0147 -12.7477 -6.21763 -0.0 0.0 0.0 -0.0 0.0 0.0 -5.74129e-15 7.33452e-15 -7.5016e-14 63.8295 21.576 0.695124 -10.0994 -4.54319 17.6089 -0.29925 17.34 2.49555 4.28467e-10 -4.62353e-10 2.22703e-10 7.43618e-10 -7.96928e-10 3.77762e-10 4.28469e-10 -4.62349e-10 2.22697e-10 7.73091 5.47488 0.417314 4.28461e-10 -4.62356e-10 2.22702e-10 2.90554 0.965183 0.102902 4.28468e-10 -4.62351e-10 2.22704e-10 10.2786 0.731801 0.0259123 4.28457e-10 -4.62347e-10 2.22712e-10 2.22167 -0.733487 -0.20892 -5.79168e-15 7.33027e-15 -7.52734e-14 -65.0946 0.834425 1.46412 8.00369 -3.22291 -13.9013 0.0486698 7.1056 -1.00253 2.83402e-10 8.37044e-10 -3.92729e-10 4.85655e-10 1.44726e-09 -6.81974e-10 2.83403e-10 8.37047e-10 -3.92716e-10 -7.73091 5.47488 -0.417314 2.83405e-10 8.37046e-10 -3.92728e-10 -2.90554 0.965183 -0.102902 2.83391e-10 8.37046e-10 -3.92726e-10 -10.2786 0.731801 -0.0259123 2.83406e-10 8.37044e-10 -3.92735e-10 -2.22167 -0.733487 0.20892 -2.03217e-16 0.0 -3.88251e-19 0.542409 -5.09059 16.6361 -0.0116983 12.5364 0.214489 -3.38402 -6.96897 -16.5684 2.03217e-16 0.0 3.88251e-19 -0.43239 -2.97449 -6.19326 0.00653847 7.85772 -0.127564 2.32459 -4.3718 12.7816
3.86285 84.6153 -2.11749 0.9854 -4.9955 1.5472 -2.94389 3.04559 1.24065 -0.224233 -1.94281 0.363205 -8.57093 7.94896 -5.34278 13.1008 -15.4523 -7.57928 -0.0 0.0 0.0 -0.0 0.0 0.0 -9.77354e-15 3.18288e-15 -6.42571e-14 77.722 26.3228 0.896576 -11.9494 -5.41323 21.5119 -0.579499 21.1068 3.10978 3.58983e-10 -4.53461e-10 2.71518e-10 6.2446e-10 -7.8277e-10 4.63051e-10 3.58985e-10 -4.53457e-10 2.71514e-10 7.73091 5.47488 0.417314 3.58976e-10 -4.53464e-10 2.71518e-10 2.90554 0.965183 0.102902 3.58983e-10 -4.53458e-10 2.7152e-10 10.2786 0.731801 0.0259123 3.58972e-10 -4.53454e-10 2.71527e-10 2.22167 -0.733487 -0.20892 -9.80737e-15 3.17823e-15 -6.45056e-14 -79.3682 1.09946 1.75512 9.56806 -3.88296 -16.994 0.0925305 8.64419 -1.22426 2.51854e-10 6.81936e-10 -4.01952e-10 4.31045e-10 1.17878e-09 -6.97625e-10 2.51855e-10 6.8194e-10 -4.01939e-10 -7.73091 5.47488 -0.417314 2.51857e-10 6.81938e-10 -4.01952e-10 -2.90554 0.965183 -0.102902 2.51843e-10 6.81939e-10 -4.0195e-10 -10.2786 0.731801 -0.0259123 2.51858e-10 6.81938e-10 -4.01958e-10 -2.22167 -0.733487 0.20892 -2.03217e-16 0.0 -3.88251e-19 0.482688 -5.15138 20.2824 -0.0239073 14.6937 0.265615 -4.69448 -8.69515 -20.295 2.03217e-16 0.0 3.88251e-19 -0.547465 -3.11251 -7.54512 0.0151997 9.85671 -0.171242 3.19963 -6.01789 15.6387
3.86421 84.6118 -2.13082 0.9853 -4.9831 1.6103 -3.21386 3.31551 1.34667 -0.257302 -2.07769 0.39125 -9.16588 8.36163 -5.63924 14.004 -16.4207 -7.94967 -0.0 0.0 0.0 -0.0 0.0 0.0 -1.51099e-14 -1.05112e-14 2.45374e-15 83.1261 28.2207 1.01498 -12.6537 -5.74369 23.0724 -0.710035 22.5338 3.35442 9.48794e-12 -2.10014e-10 2.90579e-10 2.13114e-11 -3.66138e-10 5.01711e-10 9.49046e-12 -2.1001e-10 2.90576e-10 7.73091 5.47488 0.417314 9.48092e-12 -2.10015e-10 2.90577e-10 2.90554 0.965183 0.102902 9.48977e-12 -2.1001e-10 2.90581e-10 10.2786 0.731801 0.0259123 9.47914e-12 -2.10007e-10 2.90588e-10 2.22167 -0.733487 -0.20892 -1.51245e-14 -1.05157e-14 2.21225e-15 -84.9706 1.35555 1.81504 10.1946 -4.15269 -18.2717 0.112293 9.21829 -1.3077 6.59961e-11 -1.38422e-10 -2.13074e-10 1.11749e-10 -2.40332e-10 -3.68858e-10 6.59973e-11 -1.38419e-10 -2.13062e-10 -7.73091 5.47488 -0.417314 6.59995e-11 -1.38421e-10 -2.13075e-10 -2.90554 0.965183 -0.102902 6.59859e-11 -1.3842e-10 -2.13073e-10 -10.2786 0.731801 -0.0259123 6.6e-11 -1.3842e-10 -2.13081e-10 -2.22167 -0.733487 0.20892 -2.03217e-16 0.0 -3.88251e-19 0.431345 -5.19095 21.6692 -0.0288697 15.5471 0.285905 -5.25787 -9.32846 -21.7352 2.03217e-16 0.0 3.88251e-19 -0.617074 -3.16481 -8.05399 0.0203886 10.6069 -0.187376 3.57077 -6.60926 16.7372
3.88853 84.6112 -2.13713 0.982 -4.9353 1.6399 -3.2104 3.37189 1.36509 -0.264207 -2.06013 0.394917 -9.17649 8.09619 -5.47103 14.1269 -16.1603 -7.58761 -0.0 0.0 0.0 -0.0 0.0 0.0 -2.13065e-14 -3.09335e-14 1.08456e-13 82.4867 28.084 1.0626 -12.603 -5.72628 22.9518 -0.68941 22.2929 3.31321 -5.37238e-10 1.98858e-10 2.88394e-10 -9.2275e-10 3.34351e-10 5.07028e-10 -5.37235e-10 1.98862e-10 2.88388e-10 7.73091 5.47488 0.417314 -5.37244e-10 1.9886e-10 2.88389e-10 2.90554 0.965183 0.102902 -5.37232e-10 1.98864e-10 2.88394e-10 10.2786 0.731801 0.0259123 -5.37243e-10 1.98864e-10 2.88402e-10 2.22167 -0.733487 -0.20892 -2.13e-14 -3.09373e-14 1.0822e-13 -84.3773 1.60503 1.70992 10.1885 -4.16045 -18.2492 0.108781 9.10353 -1.29105 -2.28497e-10 -1.4264e-09 1.14632e-10 -3.93894e-10 -2.46826e-09 2.01282e-10 -2.28497e-10 -1.4264e-09 1.14645e-10 -7.73091 5.47488 -0.417314 -2.28494e-10 -1.4264e-09 1.1463e-10 -2.90554 0.965183 -0.102902 -2.28507e-10 -1.4264e-09 1.14631e-10 -10.2786 0.731801 -0.0259123 -2.28494e-10 -1.4264e-09 1.14624e-10 -2.22167 -0.733487 0.20892 -2.03217e-16 0.0 -3.88251e-19 0.3788 -5.22977 21.442 -0.0266421 15.4692 0.283496 -5.16956 -9.24148 -21.5177 2.03217e-16 0.0 3.88251e-19 -0.650796 -3.15728 -7.96059 0.0215325 10.465 -0.183482 3.49798 -6.4771 16.5654
3.92882 84.613 -2.13327 1.1003 -4.9397 1.6231 -3.09566 3.34077 1.35019 -0.260529 -1.98451 0.389383 -8.93265 7.57063 -5.12197 13.8927 -15.4168 -6.95155 -0.0 0.0 0.0 -0.0 0.0 0.0 -2.54484e-14 -5.10952e-14 2.07503e-13 79.4332 27.1294 1.07777 -12.2494 -5.56898 22.1551 -0.610112 21.3949 3.15996 -1.06954e-09 6.02855e-10 2.77903e-10 -1.84208e-09 1.02665e-09 4.97826e-10 -1.06954e-09 6.02859e-10 2.77895e-10 7.73091 5.47488 0.417314 -1.06955e-09 6.0286e-10 2.77895e-10 2.90554 0.965183 0.102902 -1.06953e-09 6.02862e-10 2.77901e-10 10.2786 0.731801 0.0259123 -1.06954e-09 6.02861e-10 2.7791e-10 2.22167 -0.733487 -0.20892 -2.54223e-14 -5.1098e-14 2.07266e-13 -81.3037 1.84216 1.5405 9.9284 -4.06269 -17.7017 0.0960885 8.70882 -1.23378 -5.13172e-10 -2.64743e-09 4.08088e-10 -8.82843e-10 -4.58043e-09 7.12084e-10 -5.13174e-10 -2.64743e-09 4.08102e-10 -7.73091 5.47488 -0.417314 -5.13169e-10 -2.64743e-09 4.08086e-10 -2.90554 0.965183 -0.102902 -5.13182e-10 -2.64743e-09 4.08086e-10 -10.2786 0.731801 -0.0259123 -5.1317e-10 -2.64742e-09 4.0808e-10 -2.22167 -0.733487 0.20892 -2.03217e-16 0.0 -3.88251e-19 0.328079 -5.27146 20.5832 -0.0217603 15.0226 0.272279 -4.82962 -8.87422 -20.6489 2.03217e-16 0.0 3.88251e-19 -0.668938 -3.12829 -7.6288 0.020809 9.96557 -0.171628 3.25171 -6.05771 15.8887
3.94112 84.615 -2.15152 1.1054 -4.964 1.6035 -3.03245 3.34819 1.35635 -0.261799 -1.94516 0.389826 -8.77059 7.20383 -4.87447 13.7417 -14.94 -6.49462 -0.0 0.0 0.0 -0.0 0.0 0.0 -2.46209e-14 -6.40075e-14 2.53351e-13 77.5887 26.5739 1.10194 -12.0402 -5.47682 21.6877 -0.564708 20.8509 3.06847 -1.37577e-09 8.31677e-10 2.72049e-10 -2.37102e-09 1.41871e-09 4.9293e-10 -1.37576e-09 8.31681e-10 2.72039e-10 7.73091 5.47488 0.417314 -1.37577e-09 8.31683e-10 2.72039e-10 2.90554 0.965183 0.102902 -1.37576e-09 8.31684e-10 2.72046e-10 10.2786 0.731801 0.0259123 -1.37577e-09 8.31682e-10 2.72055e-10 2.22167 -0.733487 -0.20892 -2.45799e-14 -6.40091e-14 2.53103e-13 -79.4672 2.06114 1.40761 9.78828 -4.01366 -17.4049 0.0882365 8.44311 -1.19535 -6.69576e-10 -3.26694e-09 4.94217e-10 -1.15206e-09 -5.65229e-09 8.62837e-10 -6.69578e-10 -3.26693e-09 4.9423e-10 -7.73091 5.47488 -0.417314 -6.69573e-10 -3.26693e-09 4.94214e-10 -2.90554 0.965183 -0.102902 -6.69585e-10 -3.26693e-09 4.94214e-10 -10.2786 0.731801 -0.0259123 -6.69574e-10 -3.26693e-09 4.94207e-10 -2.22167 -0.733487 0.20892 -2.03217e-16 0.0 -3.88251e-19 0.284793 -5.31864 20.0752 -0.0188543 14.7699 0.266181 -4.6401 -8.6658 -20.1361 2.03217e-16 0.0 3.88251e-19 -0.691792 -3.11624 -7.42248 0.0203547 9.64319 -0.163871 3.10158 -5.78759 15.472
